<svg id="Layer_1" data-name="Layer 1" xmlns="http://www.w3.org/2000/svg" viewBox="0 0 694.91 506.64"><defs><style>.cls-1{fill:#6a80ff;}.cls-1,.cls-10,.cls-11,.cls-12,.cls-2,.cls-3,.cls-4,.cls-5,.cls-6,.cls-7,.cls-8,.cls-9{opacity:0.75;}.cls-2{fill:#6300d4;}.cls-3{fill:#ffaab0;}.cls-4{fill:#00063f;}.cls-5{fill:#e90058;}.cls-6{fill:#d6ff7f;}.cls-7{fill:#18aa00;}.cls-8{fill:#df6aff;}.cls-9{fill:#2af6ff;}.cls-10{fill:#ff3fc0;}.cls-11{fill:#d0ff00;}.cls-12{fill:#1d0094;}</style></defs><title>canada</title><g id="NS"><polygon class="cls-1" points="639.63 397.1 623.82 397.1 615.91 410.79 623.82 424.49 639.63 424.49 647.54 410.79 639.63 397.1"/><polygon class="cls-1" points="639.63 369.71 623.82 369.71 615.91 383.41 623.82 397.1 639.63 397.1 647.54 383.41 639.63 369.71"/><polygon class="cls-1" points="615.94 410.79 600.13 410.79 592.23 424.49 600.13 438.18 615.94 438.18 623.85 424.49 615.94 410.79"/><polygon class="cls-1" points="615.94 383.41 600.13 383.41 592.23 397.1 600.13 410.79 615.94 410.79 623.85 397.1 615.94 383.41"/></g><g id="NB"><polygon class="cls-2" points="592.25 397.1 576.44 397.1 568.54 410.79 576.44 424.49 592.25 424.49 600.16 410.79 592.25 397.1"/><polygon class="cls-2" points="592.25 369.71 576.44 369.71 568.54 383.41 576.44 397.1 592.25 397.1 600.16 383.41 592.25 369.71"/><polygon class="cls-2" points="568.56 383.41 552.75 383.41 544.85 397.1 552.75 410.79 568.56 410.79 576.47 397.1 568.56 383.41"/></g><g id="NL"><polygon class="cls-3" points="687.01 314.94 671.2 314.94 663.29 328.63 671.2 342.33 687.01 342.33 694.91 328.63 687.01 314.94"/><polygon class="cls-3" points="687.01 287.55 671.2 287.55 663.29 301.25 671.2 314.94 687.01 314.94 694.91 301.25 687.01 287.55"/><polygon class="cls-3" points="663.32 328.63 647.51 328.63 639.6 342.33 647.51 356.02 663.32 356.02 671.23 342.33 663.32 328.63"/><polygon class="cls-3" points="663.32 301.25 647.51 301.25 639.6 314.94 647.51 328.63 663.32 328.63 671.23 314.94 663.32 301.25"/><polygon class="cls-3" points="663.32 273.86 647.51 273.86 639.6 287.55 647.51 301.25 663.32 301.25 671.23 287.55 663.32 273.86"/><polygon class="cls-3" points="639.63 342.33 623.82 342.33 615.91 356.02 623.82 369.71 639.63 369.71 647.54 356.02 639.63 342.33"/><polygon class="cls-3" points="639.63 314.94 623.82 314.94 615.91 328.63 623.82 342.33 639.63 342.33 647.54 328.63 639.63 314.94"/><polygon class="cls-3" points="639.63 287.55 623.82 287.55 615.91 301.25 623.82 314.94 639.63 314.94 647.54 301.25 639.63 287.55"/><polygon class="cls-3" points="639.63 260.17 623.82 260.17 615.91 273.86 623.82 287.55 639.63 287.55 647.54 273.86 639.63 260.17"/><polygon class="cls-3" points="615.94 273.86 600.13 273.86 592.23 287.55 600.13 301.25 615.94 301.25 623.85 287.55 615.94 273.86"/><polygon class="cls-3" points="615.94 246.47 600.13 246.47 592.23 260.17 600.13 273.86 615.94 273.86 623.85 260.17 615.94 246.47"/><polygon class="cls-3" points="592.25 260.17 576.44 260.17 568.54 273.86 576.44 287.55 592.25 287.55 600.16 273.86 592.25 260.17"/><polygon class="cls-3" points="592.25 232.78 576.44 232.78 568.54 246.47 576.44 260.17 592.25 260.17 600.16 246.47 592.25 232.78"/><polygon class="cls-3" points="568.56 273.86 552.75 273.86 544.85 287.55 552.75 301.25 568.56 301.25 576.47 287.55 568.56 273.86"/><polygon class="cls-3" points="568.56 246.47 552.75 246.47 544.85 260.17 552.75 273.86 568.56 273.86 576.47 260.17 568.56 246.47"/><polygon class="cls-3" points="568.56 219.09 552.75 219.09 544.85 232.78 552.75 246.47 568.56 246.47 576.47 232.78 568.56 219.09"/><polygon class="cls-3" points="544.88 287.55 529.06 287.55 521.16 301.25 529.06 314.94 544.88 314.94 552.78 301.25 544.88 287.55"/><polygon class="cls-3" points="544.88 260.17 529.06 260.17 521.16 273.86 529.06 287.55 544.88 287.55 552.78 273.86 544.88 260.17"/><polygon class="cls-3" points="544.88 232.78 529.06 232.78 521.16 246.47 529.06 260.17 544.88 260.17 552.78 246.47 544.88 232.78"/><polygon class="cls-3" points="544.88 205.4 529.06 205.4 521.16 219.09 529.06 232.78 544.88 232.78 552.78 219.09 544.88 205.4"/></g><g id="QC"><polygon class="cls-4" points="615.94 301.25 600.13 301.25 592.23 314.94 600.13 328.63 615.94 328.63 623.85 314.94 615.94 301.25"/><polygon class="cls-4" points="592.25 314.94 576.44 314.94 568.54 328.63 576.44 342.33 592.25 342.33 600.16 328.63 592.25 314.94"/><polygon class="cls-4" points="592.25 287.55 576.44 287.55 568.54 301.25 576.44 314.94 592.25 314.94 600.16 301.25 592.25 287.55"/><polygon class="cls-4" points="568.56 356.02 552.75 356.02 544.85 369.71 552.75 383.41 568.56 383.41 576.47 369.71 568.56 356.02"/><polygon class="cls-4" points="568.56 328.63 552.75 328.63 544.85 342.33 552.75 356.02 568.56 356.02 576.47 342.33 568.56 328.63"/><polygon class="cls-4" points="568.56 301.25 552.75 301.25 544.85 314.94 552.75 328.63 568.56 328.63 576.47 314.94 568.56 301.25"/><polygon class="cls-4" points="544.88 397.1 529.06 397.1 521.16 410.79 529.06 424.49 544.88 424.49 552.78 410.79 544.88 397.1"/><polygon class="cls-4" points="544.88 369.71 529.06 369.71 521.16 383.41 529.06 397.1 544.88 397.1 552.78 383.41 544.88 369.71"/><polygon class="cls-4" points="544.88 342.33 529.06 342.33 521.16 356.02 529.06 369.71 544.88 369.71 552.78 356.02 544.88 342.33"/><polygon class="cls-4" points="544.88 314.94 529.06 314.94 521.16 328.63 529.06 342.33 544.88 342.33 552.78 328.63 544.88 314.94"/><polygon class="cls-4" points="521.19 410.79 505.38 410.79 497.47 424.49 505.38 438.18 521.19 438.18 529.09 424.49 521.19 410.79"/><polygon class="cls-4" points="521.19 383.41 505.38 383.41 497.47 397.1 505.38 410.79 521.19 410.79 529.09 397.1 521.19 383.41"/><polygon class="cls-4" points="521.19 356.02 505.38 356.02 497.47 369.71 505.38 383.41 521.19 383.41 529.09 369.71 521.19 356.02"/><polygon class="cls-4" points="521.19 328.63 505.38 328.63 497.47 342.33 505.38 356.02 521.19 356.02 529.09 342.33 521.19 328.63"/><polygon class="cls-4" points="521.19 301.25 505.38 301.25 497.47 314.94 505.38 328.63 521.19 328.63 529.09 314.94 521.19 301.25"/><polygon class="cls-4" points="521.19 273.86 505.38 273.86 497.47 287.55 505.38 301.25 521.19 301.25 529.09 287.55 521.19 273.86"/><polygon class="cls-4" points="521.19 246.47 505.38 246.47 497.47 260.17 505.38 273.86 521.19 273.86 529.09 260.17 521.19 246.47"/><polygon class="cls-4" points="521.19 219.09 505.38 219.09 497.47 232.78 505.38 246.47 521.19 246.47 529.09 232.78 521.19 219.09"/><polygon class="cls-4" points="497.5 397.1 481.69 397.1 473.78 410.79 481.69 424.49 497.5 424.49 505.4 410.79 497.5 397.1"/><polygon class="cls-4" points="497.5 369.71 481.69 369.71 473.78 383.41 481.69 397.1 497.5 397.1 505.4 383.41 497.5 369.71"/><polygon class="cls-4" points="497.5 342.33 481.69 342.33 473.78 356.02 481.69 369.71 497.5 369.71 505.4 356.02 497.5 342.33"/><polygon class="cls-4" points="497.5 314.94 481.69 314.94 473.78 328.63 481.69 342.33 497.5 342.33 505.4 328.63 497.5 314.94"/><polygon class="cls-4" points="497.5 287.55 481.69 287.55 473.78 301.25 481.69 314.94 497.5 314.94 505.4 301.25 497.5 287.55"/><polygon class="cls-4" points="497.5 260.17 481.69 260.17 473.78 273.86 481.69 287.55 497.5 287.55 505.4 273.86 497.5 260.17"/><polygon class="cls-4" points="497.5 232.78 481.69 232.78 473.78 246.47 481.69 260.17 497.5 260.17 505.4 246.47 497.5 232.78"/><polygon class="cls-4" points="473.81 383.41 458 383.41 450.09 397.1 458 410.79 473.81 410.79 481.71 397.1 473.81 383.41"/><polygon class="cls-4" points="473.81 356.02 458 356.02 450.09 369.71 458 383.41 473.81 383.41 481.71 369.71 473.81 356.02"/><polygon class="cls-4" points="473.81 328.63 458 328.63 450.09 342.33 458 356.02 473.81 356.02 481.71 342.33 473.81 328.63"/><polygon class="cls-4" points="473.81 301.25 458 301.25 450.09 314.94 458 328.63 473.81 328.63 481.71 314.94 473.81 301.25"/><polygon class="cls-4" points="473.81 273.86 458 273.86 450.09 287.55 458 301.25 473.81 301.25 481.71 287.55 473.81 273.86"/><polygon class="cls-4" points="473.81 246.47 458 246.47 450.09 260.17 458 273.86 473.81 273.86 481.71 260.17 473.81 246.47"/><polygon class="cls-4" points="473.81 219.09 458 219.09 450.09 232.78 458 246.47 473.81 246.47 481.71 232.78 473.81 219.09"/><polygon class="cls-4" points="473.81 191.7 458 191.7 450.09 205.4 458 219.09 473.81 219.09 481.71 205.4 473.81 191.7"/><polygon class="cls-4" points="450.12 314.94 434.31 314.94 426.4 328.63 434.31 342.33 450.12 342.33 458.02 328.63 450.12 314.94"/><polygon class="cls-4" points="450.12 287.55 434.31 287.55 426.4 301.25 434.31 314.94 450.12 314.94 458.02 301.25 450.12 287.55"/><polygon class="cls-4" points="450.12 260.17 434.31 260.17 426.4 273.86 434.31 287.55 450.12 287.55 458.02 273.86 450.12 260.17"/><polygon class="cls-4" points="450.12 232.78 434.31 232.78 426.4 246.47 434.31 260.17 450.12 260.17 458.02 246.47 450.12 232.78"/><polygon class="cls-4" points="450.12 205.4 434.31 205.4 426.4 219.09 434.31 232.78 450.12 232.78 458.02 219.09 450.12 205.4"/><polygon class="cls-4" points="426.43 273.86 410.62 273.86 402.71 287.55 410.62 301.25 426.43 301.25 434.34 287.55 426.43 273.86"/><polygon class="cls-4" points="426.43 246.47 410.62 246.47 402.71 260.17 410.62 273.86 426.43 273.86 434.34 260.17 426.43 246.47"/><polygon class="cls-4" points="426.43 219.09 410.62 219.09 402.71 232.78 410.62 246.47 426.43 246.47 434.34 232.78 426.43 219.09"/></g><g id="ON"><polygon class="cls-5" points="521.19 438.18 505.38 438.18 497.47 451.87 505.38 465.56 521.19 465.56 529.09 451.87 521.19 438.18"/><polygon class="cls-5" points="497.5 451.87 481.69 451.87 473.78 465.56 481.69 479.26 497.5 479.26 505.4 465.56 497.5 451.87"/><polygon class="cls-5" points="497.5 424.49 481.69 424.49 473.78 438.18 481.69 451.87 497.5 451.87 505.4 438.18 497.5 424.49"/><polygon class="cls-5" points="473.81 465.56 458 465.56 450.09 479.26 458 492.95 473.81 492.95 481.71 479.26 473.81 465.56"/><polygon class="cls-5" points="473.81 438.18 458 438.18 450.09 451.87 458 465.56 473.81 465.56 481.71 451.87 473.81 438.18"/><polygon class="cls-5" points="473.81 410.79 458 410.79 450.09 424.49 458 438.18 473.81 438.18 481.71 424.49 473.81 410.79"/><polygon class="cls-5" points="450.12 479.26 434.31 479.26 426.4 492.95 434.31 506.64 450.12 506.64 458.02 492.95 450.12 479.26"/><polygon class="cls-5" points="450.12 451.87 434.31 451.87 426.4 465.56 434.31 479.26 450.12 479.26 458.02 465.56 450.12 451.87"/><polygon class="cls-5" points="450.12 424.49 434.31 424.49 426.4 438.18 434.31 451.87 450.12 451.87 458.02 438.18 450.12 424.49"/><polygon class="cls-5" points="450.12 397.1 434.31 397.1 426.4 410.79 434.31 424.49 450.12 424.49 458.02 410.79 450.12 397.1"/><polygon class="cls-5" points="450.12 369.71 434.31 369.71 426.4 383.41 434.31 397.1 450.12 397.1 458.02 383.41 450.12 369.71"/><polygon class="cls-5" points="450.12 342.33 434.31 342.33 426.4 356.02 434.31 369.71 450.12 369.71 458.02 356.02 450.12 342.33"/><polygon class="cls-5" points="426.43 465.56 410.62 465.56 402.71 479.26 410.62 492.95 426.43 492.95 434.34 479.26 426.43 465.56"/><polygon class="cls-5" points="426.43 438.18 410.62 438.18 402.71 451.87 410.62 465.56 426.43 465.56 434.34 451.87 426.43 438.18"/><polygon class="cls-5" points="426.43 410.79 410.62 410.79 402.71 424.49 410.62 438.18 426.43 438.18 434.34 424.49 426.43 410.79"/><polygon class="cls-5" points="426.43 383.41 410.62 383.41 402.71 397.1 410.62 410.79 426.43 410.79 434.34 397.1 426.43 383.41"/><polygon class="cls-5" points="426.43 356.02 410.62 356.02 402.71 369.71 410.62 383.41 426.43 383.41 434.34 369.71 426.43 356.02"/><polygon class="cls-5" points="426.43 328.63 410.62 328.63 402.71 342.33 410.62 356.02 426.43 356.02 434.34 342.33 426.43 328.63"/><polygon class="cls-5" points="402.74 424.49 386.93 424.49 379.02 438.18 386.93 451.87 402.74 451.87 410.65 438.18 402.74 424.49"/><polygon class="cls-5" points="402.74 397.1 386.93 397.1 379.02 410.79 386.93 424.49 402.74 424.49 410.65 410.79 402.74 397.1"/><polygon class="cls-5" points="402.74 369.71 386.93 369.71 379.02 383.41 386.93 397.1 402.74 397.1 410.65 383.41 402.74 369.71"/><polygon class="cls-5" points="402.74 342.33 386.93 342.33 379.02 356.02 386.93 369.71 402.74 369.71 410.65 356.02 402.74 342.33"/><polygon class="cls-5" points="402.74 314.94 386.93 314.94 379.02 328.63 386.93 342.33 402.74 342.33 410.65 328.63 402.74 314.94"/><polygon class="cls-5" points="379.05 410.79 363.24 410.79 355.33 424.49 363.24 438.18 379.05 438.18 386.96 424.49 379.05 410.79"/><polygon class="cls-5" points="379.05 383.41 363.24 383.41 355.33 397.1 363.24 410.79 379.05 410.79 386.96 397.1 379.05 383.41"/><polygon class="cls-5" points="379.05 356.02 363.24 356.02 355.33 369.71 363.24 383.41 379.05 383.41 386.96 369.71 379.05 356.02"/><polygon class="cls-5" points="379.05 328.63 363.24 328.63 355.33 342.33 363.24 356.02 379.05 356.02 386.96 342.33 379.05 328.63"/><polygon class="cls-5" points="379.05 301.25 363.24 301.25 355.33 314.94 363.24 328.63 379.05 328.63 386.96 314.94 379.05 301.25"/><polygon class="cls-5" points="355.36 424.49 339.55 424.49 331.65 438.18 339.55 451.87 355.36 451.87 363.27 438.18 355.36 424.49"/><polygon class="cls-5" points="355.36 397.1 339.55 397.1 331.65 410.79 339.55 424.49 355.36 424.49 363.27 410.79 355.36 397.1"/><polygon class="cls-5" points="355.36 369.71 339.55 369.71 331.65 383.41 339.55 397.1 355.36 397.1 363.27 383.41 355.36 369.71"/><polygon class="cls-5" points="355.36 342.33 339.55 342.33 331.65 356.02 339.55 369.71 355.36 369.71 363.27 356.02 355.36 342.33"/></g><g id="MB"><polygon class="cls-6" points="355.36 314.94 339.55 314.94 331.65 328.63 339.55 342.33 355.36 342.33 363.27 328.63 355.36 314.94"/><polygon class="cls-6" points="355.36 287.55 339.55 287.55 331.65 301.25 339.55 314.94 355.36 314.94 363.27 301.25 355.36 287.55"/><polygon class="cls-6" points="331.67 410.79 315.86 410.79 307.96 424.49 315.86 438.18 331.67 438.18 339.58 424.49 331.67 410.79"/><polygon class="cls-6" points="331.67 383.41 315.86 383.41 307.96 397.1 315.86 410.79 331.67 410.79 339.58 397.1 331.67 383.41"/><polygon class="cls-6" points="331.67 356.02 315.86 356.02 307.96 369.71 315.86 383.41 331.67 383.41 339.58 369.71 331.67 356.02"/><polygon class="cls-6" points="331.67 328.63 315.86 328.63 307.96 342.33 315.86 356.02 331.67 356.02 339.58 342.33 331.67 328.63"/><polygon class="cls-6" points="331.67 301.25 315.86 301.25 307.96 314.94 315.86 328.63 331.67 328.63 339.58 314.94 331.67 301.25"/><polygon class="cls-6" points="331.67 273.86 315.86 273.86 307.96 287.55 315.86 301.25 331.67 301.25 339.58 287.55 331.67 273.86"/><polygon class="cls-6" points="307.99 424.49 292.17 424.49 284.27 438.18 292.17 451.87 307.99 451.87 315.89 438.18 307.99 424.49"/><polygon class="cls-6" points="307.99 397.1 292.17 397.1 284.27 410.79 292.17 424.49 307.99 424.49 315.89 410.79 307.99 397.1"/><polygon class="cls-6" points="307.99 369.71 292.17 369.71 284.27 383.41 292.17 397.1 307.99 397.1 315.89 383.41 307.99 369.71"/><polygon class="cls-6" points="307.99 342.33 292.17 342.33 284.27 356.02 292.17 369.71 307.99 369.71 315.89 356.02 307.99 342.33"/><polygon class="cls-6" points="307.99 314.94 292.17 314.94 284.27 328.63 292.17 342.33 307.99 342.33 315.89 328.63 307.99 314.94"/><polygon class="cls-6" points="307.99 287.55 292.17 287.55 284.27 301.25 292.17 314.94 307.99 314.94 315.89 301.25 307.99 287.55"/><polygon class="cls-6" points="284.3 410.79 268.49 410.79 260.58 424.49 268.49 438.18 284.3 438.18 292.2 424.49 284.3 410.79"/><polygon class="cls-6" points="284.3 383.41 268.49 383.41 260.58 397.1 268.49 410.79 284.3 410.79 292.2 397.1 284.3 383.41"/><polygon class="cls-6" points="284.3 356.02 268.49 356.02 260.58 369.71 268.49 383.41 284.3 383.41 292.2 369.71 284.3 356.02"/><polygon class="cls-6" points="284.3 328.63 268.49 328.63 260.58 342.33 268.49 356.02 284.3 356.02 292.2 342.33 284.3 328.63"/><polygon class="cls-6" points="284.3 301.25 268.49 301.25 260.58 314.94 268.49 328.63 284.3 328.63 292.2 314.94 284.3 301.25"/><polygon class="cls-6" points="284.3 273.86 268.49 273.86 260.58 287.55 268.49 301.25 284.3 301.25 292.2 287.55 284.3 273.86"/></g><g id="SK"><polygon class="cls-7" points="260.61 424.49 244.8 424.49 236.89 438.18 244.8 451.87 260.61 451.87 268.51 438.18 260.61 424.49"/><polygon class="cls-7" points="260.61 397.1 244.8 397.1 236.89 410.79 244.8 424.49 260.61 424.49 268.51 410.79 260.61 397.1"/><polygon class="cls-7" points="260.61 369.71 244.8 369.71 236.89 383.41 244.8 397.1 260.61 397.1 268.51 383.41 260.61 369.71"/><polygon class="cls-7" points="260.61 342.33 244.8 342.33 236.89 356.02 244.8 369.71 260.61 369.71 268.51 356.02 260.61 342.33"/><polygon class="cls-7" points="260.61 314.94 244.8 314.94 236.89 328.63 244.8 342.33 260.61 342.33 268.51 328.63 260.61 314.94"/><polygon class="cls-7" points="260.61 287.55 244.8 287.55 236.89 301.25 244.8 314.94 260.61 314.94 268.51 301.25 260.61 287.55"/><polygon class="cls-7" points="236.92 410.79 221.11 410.79 213.2 424.49 221.11 438.18 236.92 438.18 244.82 424.49 236.92 410.79"/><polygon class="cls-7" points="236.92 383.41 221.11 383.41 213.2 397.1 221.11 410.79 236.92 410.79 244.82 397.1 236.92 383.41"/><polygon class="cls-7" points="236.92 356.02 221.11 356.02 213.2 369.71 221.11 383.41 236.92 383.41 244.82 369.71 236.92 356.02"/><polygon class="cls-7" points="236.92 328.63 221.11 328.63 213.2 342.33 221.11 356.02 236.92 356.02 244.82 342.33 236.92 328.63"/><polygon class="cls-7" points="236.92 301.25 221.11 301.25 213.2 314.94 221.11 328.63 236.92 328.63 244.82 314.94 236.92 301.25"/><polygon class="cls-7" points="236.92 273.86 221.11 273.86 213.2 287.55 221.11 301.25 236.92 301.25 244.82 287.55 236.92 273.86"/><polygon class="cls-7" points="213.23 397.1 197.42 397.1 189.51 410.79 197.42 424.49 213.23 424.49 221.13 410.79 213.23 397.1"/><polygon class="cls-7" points="213.23 369.71 197.42 369.71 189.51 383.41 197.42 397.1 213.23 397.1 221.13 383.41 213.23 369.71"/><polygon class="cls-7" points="213.23 342.33 197.42 342.33 189.51 356.02 197.42 369.71 213.23 369.71 221.13 356.02 213.23 342.33"/><polygon class="cls-7" points="213.23 314.94 197.42 314.94 189.51 328.63 197.42 342.33 213.23 342.33 221.13 328.63 213.23 314.94"/><polygon class="cls-7" points="213.23 287.55 197.42 287.55 189.51 301.25 197.42 314.94 213.23 314.94 221.13 301.25 213.23 287.55"/></g><g id="NU"><polygon class="cls-8" points="497.5 205.4 481.69 205.4 473.78 219.09 481.69 232.78 497.5 232.78 505.4 219.09 497.5 205.4"/><polygon class="cls-8" points="497.5 178.01 481.69 178.01 473.78 191.7 481.69 205.4 497.5 205.4 505.4 191.7 497.5 178.01"/><polygon class="cls-8" points="497.5 150.62 481.69 150.62 473.78 164.32 481.69 178.01 497.5 178.01 505.4 164.32 497.5 150.62"/><polygon class="cls-8" points="497.5 123.24 481.69 123.24 473.78 136.93 481.69 150.62 497.5 150.62 505.4 136.93 497.5 123.24"/><polygon class="cls-8" points="473.81 164.32 458 164.32 450.09 178.01 458 191.7 473.81 191.7 481.71 178.01 473.81 164.32"/><polygon class="cls-8" points="473.81 136.93 458 136.93 450.09 150.62 458 164.32 473.81 164.32 481.71 150.62 473.81 136.93"/><polygon class="cls-8" points="473.81 109.55 458 109.55 450.09 123.24 458 136.93 473.81 136.93 481.71 123.24 473.81 109.55"/><polygon class="cls-8" points="450.12 178.01 434.31 178.01 426.4 191.7 434.31 205.4 450.12 205.4 458.02 191.7 450.12 178.01"/><polygon class="cls-8" points="450.12 150.62 434.31 150.62 426.4 164.32 434.31 178.01 450.12 178.01 458.02 164.32 450.12 150.62"/><polygon class="cls-8" points="450.12 123.24 434.31 123.24 426.4 136.93 434.31 150.62 450.12 150.62 458.02 136.93 450.12 123.24"/><polygon class="cls-8" points="450.12 95.85 434.31 95.85 426.4 109.55 434.31 123.24 450.12 123.24 458.02 109.55 450.12 95.85"/><polygon class="cls-8" points="426.43 191.7 410.62 191.7 402.71 205.4 410.62 219.09 426.43 219.09 434.34 205.4 426.43 191.7"/><polygon class="cls-8" points="426.43 164.32 410.62 164.32 402.71 178.01 410.62 191.7 426.43 191.7 434.34 178.01 426.43 164.32"/><polygon class="cls-8" points="426.43 136.93 410.62 136.93 402.71 150.62 410.62 164.32 426.43 164.32 434.34 150.62 426.43 136.93"/><polygon class="cls-8" points="426.43 109.55 410.62 109.55 402.71 123.24 410.62 136.93 426.43 136.93 434.34 123.24 426.43 109.55"/><polygon class="cls-8" points="426.43 82.16 410.62 82.16 402.71 95.85 410.62 109.55 426.43 109.55 434.34 95.85 426.43 82.16"/><polygon class="cls-8" points="402.74 232.78 386.93 232.78 379.02 246.47 386.93 260.17 402.74 260.17 410.65 246.47 402.74 232.78"/><polygon class="cls-8" points="402.74 205.4 386.93 205.4 379.02 219.09 386.93 232.78 402.74 232.78 410.65 219.09 402.74 205.4"/><polygon class="cls-8" points="402.74 178.01 386.93 178.01 379.02 191.7 386.93 205.4 402.74 205.4 410.65 191.7 402.74 178.01"/><polygon class="cls-8" points="402.74 150.62 386.93 150.62 379.02 164.32 386.93 178.01 402.74 178.01 410.65 164.32 402.74 150.62"/><polygon class="cls-8" points="402.74 123.24 386.93 123.24 379.02 136.93 386.93 150.62 402.74 150.62 410.65 136.93 402.74 123.24"/><polygon class="cls-8" points="402.74 95.85 386.93 95.85 379.02 109.55 386.93 123.24 402.74 123.24 410.65 109.55 402.74 95.85"/><polygon class="cls-8" points="402.74 68.47 386.93 68.47 379.02 82.16 386.93 95.85 402.74 95.85 410.65 82.16 402.74 68.47"/><polygon class="cls-8" points="379.05 219.09 363.24 219.09 355.33 232.78 363.24 246.47 379.05 246.47 386.96 232.78 379.05 219.09"/><polygon class="cls-8" points="379.05 191.7 363.24 191.7 355.33 205.4 363.24 219.09 379.05 219.09 386.96 205.4 379.05 191.7"/><polygon class="cls-8" points="379.05 164.32 363.24 164.32 355.33 178.01 363.24 191.7 379.05 191.7 386.96 178.01 379.05 164.32"/><polygon class="cls-8" points="379.05 136.93 363.24 136.93 355.33 150.62 363.24 164.32 379.05 164.32 386.96 150.62 379.05 136.93"/><polygon class="cls-8" points="379.05 109.55 363.24 109.55 355.33 123.24 363.24 136.93 379.05 136.93 386.96 123.24 379.05 109.55"/><polygon class="cls-8" points="379.05 82.16 363.24 82.16 355.33 95.85 363.24 109.55 379.05 109.55 386.96 95.85 379.05 82.16"/><polygon class="cls-8" points="379.05 54.77 363.24 54.77 355.33 68.47 363.24 82.16 379.05 82.16 386.96 68.47 379.05 54.77"/><polygon class="cls-8" points="355.36 205.4 339.55 205.4 331.65 219.09 339.55 232.78 355.36 232.78 363.27 219.09 355.36 205.4"/><polygon class="cls-8" points="355.36 178.01 339.55 178.01 331.65 191.7 339.55 205.4 355.36 205.4 363.27 191.7 355.36 178.01"/><polygon class="cls-8" points="355.36 150.62 339.55 150.62 331.65 164.32 339.55 178.01 355.36 178.01 363.27 164.32 355.36 150.62"/><polygon class="cls-8" points="355.36 123.24 339.55 123.24 331.65 136.93 339.55 150.62 355.36 150.62 363.27 136.93 355.36 123.24"/><polygon class="cls-8" points="355.36 95.85 339.55 95.85 331.65 109.55 339.55 123.24 355.36 123.24 363.27 109.55 355.36 95.85"/><polygon class="cls-8" points="355.36 68.47 339.55 68.47 331.65 82.16 339.55 95.85 355.36 95.85 363.27 82.16 355.36 68.47"/><polygon class="cls-8" points="355.36 41.08 339.55 41.08 331.65 54.77 339.55 68.47 355.36 68.47 363.27 54.77 355.36 41.08"/><polygon class="cls-8" points="355.36 13.69 339.55 13.69 331.65 27.39 339.55 41.08 355.36 41.08 363.27 27.39 355.36 13.69"/><polygon class="cls-8" points="331.67 246.47 315.86 246.47 307.96 260.17 315.86 273.86 331.67 273.86 339.58 260.17 331.67 246.47"/><polygon class="cls-8" points="331.67 219.09 315.86 219.09 307.96 232.78 315.86 246.47 331.67 246.47 339.58 232.78 331.67 219.09"/><polygon class="cls-8" points="331.67 191.7 315.86 191.7 307.96 205.4 315.86 219.09 331.67 219.09 339.58 205.4 331.67 191.7"/><polygon class="cls-8" points="331.67 164.32 315.86 164.32 307.96 178.01 315.86 191.7 331.67 191.7 339.58 178.01 331.67 164.32"/><polygon class="cls-8" points="331.67 136.93 315.86 136.93 307.96 150.62 315.86 164.32 331.67 164.32 339.58 150.62 331.67 136.93"/><polygon class="cls-8" points="331.67 109.55 315.86 109.55 307.96 123.24 315.86 136.93 331.67 136.93 339.58 123.24 331.67 109.55"/><polygon class="cls-8" points="331.67 82.16 315.86 82.16 307.96 95.85 315.86 109.55 331.67 109.55 339.58 95.85 331.67 82.16"/><polygon class="cls-8" points="331.67 54.77 315.86 54.77 307.96 68.47 315.86 82.16 331.67 82.16 339.58 68.47 331.67 54.77"/><polygon class="cls-8" points="331.67 27.39 315.86 27.39 307.96 41.08 315.86 54.77 331.67 54.77 339.58 41.08 331.67 27.39"/><polygon class="cls-8" points="331.67 0 315.86 0 307.96 13.69 315.86 27.39 331.67 27.39 339.58 13.69 331.67 0"/><polygon class="cls-8" points="307.99 260.17 292.17 260.17 284.27 273.86 292.17 287.55 307.99 287.55 315.89 273.86 307.99 260.17"/><polygon class="cls-8" points="307.99 232.78 292.17 232.78 284.27 246.47 292.17 260.17 307.99 260.17 315.89 246.47 307.99 232.78"/><polygon class="cls-8" points="307.99 205.4 292.17 205.4 284.27 219.09 292.17 232.78 307.99 232.78 315.89 219.09 307.99 205.4"/><polygon class="cls-8" points="307.99 178.01 292.17 178.01 284.27 191.7 292.17 205.4 307.99 205.4 315.89 191.7 307.99 178.01"/><polygon class="cls-8" points="307.99 150.62 292.17 150.62 284.27 164.32 292.17 178.01 307.99 178.01 315.89 164.32 307.99 150.62"/><polygon class="cls-8" points="307.99 123.24 292.17 123.24 284.27 136.93 292.17 150.62 307.99 150.62 315.89 136.93 307.99 123.24"/><polygon class="cls-8" points="307.99 95.85 292.17 95.85 284.27 109.55 292.17 123.24 307.99 123.24 315.89 109.55 307.99 95.85"/><polygon class="cls-8" points="307.99 68.47 292.17 68.47 284.27 82.16 292.17 95.85 307.99 95.85 315.89 82.16 307.99 68.47"/><polygon class="cls-8" points="307.99 41.08 292.17 41.08 284.27 54.77 292.17 68.47 307.99 68.47 315.89 54.77 307.99 41.08"/><polygon class="cls-8" points="307.99 13.69 292.17 13.69 284.27 27.39 292.17 41.08 307.99 41.08 315.89 27.39 307.99 13.69"/><polygon class="cls-8" points="284.3 246.47 268.49 246.47 260.58 260.17 268.49 273.86 284.3 273.86 292.2 260.17 284.3 246.47"/><polygon class="cls-8" points="284.3 219.09 268.49 219.09 260.58 232.78 268.49 246.47 284.3 246.47 292.2 232.78 284.3 219.09"/><polygon class="cls-8" points="284.3 191.7 268.49 191.7 260.58 205.4 268.49 219.09 284.3 219.09 292.2 205.4 284.3 191.7"/><polygon class="cls-8" points="284.3 164.32 268.49 164.32 260.58 178.01 268.49 191.7 284.3 191.7 292.2 178.01 284.3 164.32"/><polygon class="cls-8" points="284.3 136.93 268.49 136.93 260.58 150.62 268.49 164.32 284.3 164.32 292.2 150.62 284.3 136.93"/><polygon class="cls-8" points="284.3 109.55 268.49 109.55 260.58 123.24 268.49 136.93 284.3 136.93 292.2 123.24 284.3 109.55"/><polygon class="cls-8" points="284.3 82.16 268.49 82.16 260.58 95.85 268.49 109.55 284.3 109.55 292.2 95.85 284.3 82.16"/><polygon class="cls-8" points="284.3 54.77 268.49 54.77 260.58 68.47 268.49 82.16 284.3 82.16 292.2 68.47 284.3 54.77"/><polygon class="cls-8" points="284.3 27.39 268.49 27.39 260.58 41.08 268.49 54.77 284.3 54.77 292.2 41.08 284.3 27.39"/><polygon class="cls-8" points="284.3 0 268.49 0 260.58 13.69 268.49 27.39 284.3 27.39 292.2 13.69 284.3 0"/><polygon class="cls-8" points="260.61 178.01 244.8 178.01 236.89 191.7 244.8 205.4 260.61 205.4 268.51 191.7 260.61 178.01"/><polygon class="cls-8" points="260.61 150.62 244.8 150.62 236.89 164.32 244.8 178.01 260.61 178.01 268.51 164.32 260.61 150.62"/><polygon class="cls-8" points="260.61 123.24 244.8 123.24 236.89 136.93 244.8 150.62 260.61 150.62 268.51 136.93 260.61 123.24"/><polygon class="cls-8" points="260.61 95.85 244.8 95.85 236.89 109.55 244.8 123.24 260.61 123.24 268.51 109.55 260.61 95.85"/><polygon class="cls-8" points="260.61 68.47 244.8 68.47 236.89 82.16 244.8 95.85 260.61 95.85 268.51 82.16 260.61 68.47"/><polygon class="cls-8" points="260.61 41.08 244.8 41.08 236.89 54.77 244.8 68.47 260.61 68.47 268.51 54.77 260.61 41.08"/><polygon class="cls-8" points="260.61 13.69 244.8 13.69 236.89 27.39 244.8 41.08 260.61 41.08 268.51 27.39 260.61 13.69"/><polygon class="cls-8" points="236.92 164.32 221.11 164.32 213.2 178.01 221.11 191.7 236.92 191.7 244.82 178.01 236.92 164.32"/><polygon class="cls-8" points="236.92 136.93 221.11 136.93 213.2 150.62 221.11 164.32 236.92 164.32 244.82 150.62 236.92 136.93"/><polygon class="cls-8" points="236.92 109.55 221.11 109.55 213.2 123.24 221.11 136.93 236.92 136.93 244.82 123.24 236.92 109.55"/><polygon class="cls-8" points="236.92 82.16 221.11 82.16 213.2 95.85 221.11 109.55 236.92 109.55 244.82 95.85 236.92 82.16"/><polygon class="cls-8" points="236.92 54.77 221.11 54.77 213.2 68.47 221.11 82.16 236.92 82.16 244.82 68.47 236.92 54.77"/><polygon class="cls-8" points="236.92 27.39 221.11 27.39 213.2 41.08 221.11 54.77 236.92 54.77 244.82 41.08 236.92 27.39"/><polygon class="cls-8" points="213.23 178.01 197.42 178.01 189.51 191.7 197.42 205.4 213.23 205.4 221.13 191.7 213.23 178.01"/><polygon class="cls-8" points="213.23 150.62 197.42 150.62 189.51 164.32 197.42 178.01 213.23 178.01 221.13 164.32 213.23 150.62"/><polygon class="cls-8" points="213.23 123.24 197.42 123.24 189.51 136.93 197.42 150.62 213.23 150.62 221.13 136.93 213.23 123.24"/><polygon class="cls-8" points="213.23 95.85 197.42 95.85 189.51 109.55 197.42 123.24 213.23 123.24 221.13 109.55 213.23 95.85"/><polygon class="cls-8" points="213.23 68.47 197.42 68.47 189.51 82.16 197.42 95.85 213.23 95.85 221.13 82.16 213.23 68.47"/><polygon class="cls-8" points="213.23 41.08 197.42 41.08 189.51 54.77 197.42 68.47 213.23 68.47 221.13 54.77 213.23 41.08"/><polygon class="cls-8" points="213.23 13.69 197.42 13.69 189.51 27.39 197.42 41.08 213.23 41.08 221.13 27.39 213.23 13.69"/><polygon class="cls-8" points="189.54 136.93 173.73 136.93 165.82 150.62 173.73 164.32 189.54 164.32 197.45 150.62 189.54 136.93"/><polygon class="cls-8" points="189.54 109.55 173.73 109.55 165.82 123.24 173.73 136.93 189.54 136.93 197.45 123.24 189.54 109.55"/><polygon class="cls-8" points="189.54 82.16 173.73 82.16 165.82 95.85 173.73 109.55 189.54 109.55 197.45 95.85 189.54 82.16"/><polygon class="cls-8" points="189.54 54.77 173.73 54.77 165.82 68.47 173.73 82.16 189.54 82.16 197.45 68.47 189.54 54.77"/><polygon class="cls-8" points="189.54 27.39 173.73 27.39 165.82 41.08 173.73 54.77 189.54 54.77 197.45 41.08 189.54 27.39"/></g><g id="AB"><polygon class="cls-9" points="189.54 410.79 173.73 410.79 165.82 424.49 173.73 438.18 189.54 438.18 197.45 424.49 189.54 410.79"/><polygon class="cls-9" points="189.54 383.41 173.73 383.41 165.82 397.1 173.73 410.79 189.54 410.79 197.45 397.1 189.54 383.41"/><polygon class="cls-9" points="189.54 356.02 173.73 356.02 165.82 369.71 173.73 383.41 189.54 383.41 197.45 369.71 189.54 356.02"/><polygon class="cls-9" points="189.54 328.63 173.73 328.63 165.82 342.33 173.73 356.02 189.54 356.02 197.45 342.33 189.54 328.63"/><polygon class="cls-9" points="189.54 301.25 173.73 301.25 165.82 314.94 173.73 328.63 189.54 328.63 197.45 314.94 189.54 301.25"/><polygon class="cls-9" points="189.54 273.86 173.73 273.86 165.82 287.55 173.73 301.25 189.54 301.25 197.45 287.55 189.54 273.86"/><polygon class="cls-9" points="165.85 397.1 150.04 397.1 142.13 410.79 150.04 424.49 165.85 424.49 173.76 410.79 165.85 397.1"/><polygon class="cls-9" points="165.85 369.71 150.04 369.71 142.13 383.41 150.04 397.1 165.85 397.1 173.76 383.41 165.85 369.71"/><polygon class="cls-9" points="165.85 342.33 150.04 342.33 142.13 356.02 150.04 369.71 165.85 369.71 173.76 356.02 165.85 342.33"/><polygon class="cls-9" points="165.85 314.94 150.04 314.94 142.13 328.63 150.04 342.33 165.85 342.33 173.76 328.63 165.85 314.94"/><polygon class="cls-9" points="165.85 287.55 150.04 287.55 142.13 301.25 150.04 314.94 165.85 314.94 173.76 301.25 165.85 287.55"/><polygon class="cls-9" points="165.85 260.17 150.04 260.17 142.13 273.86 150.04 287.55 165.85 287.55 173.76 273.86 165.85 260.17"/><polygon class="cls-9" points="142.16 356.02 126.35 356.02 118.44 369.71 126.35 383.41 142.16 383.41 150.07 369.71 142.16 356.02"/><polygon class="cls-9" points="142.16 328.63 126.35 328.63 118.44 342.33 126.35 356.02 142.16 356.02 150.07 342.33 142.16 328.63"/><polygon class="cls-9" points="142.16 301.25 126.35 301.25 118.44 314.94 126.35 328.63 142.16 328.63 150.07 314.94 142.16 301.25"/><polygon class="cls-9" points="142.16 273.86 126.35 273.86 118.44 287.55 126.35 301.25 142.16 301.25 150.07 287.55 142.16 273.86"/><polygon class="cls-9" points="118.47 314.94 102.66 314.94 94.76 328.63 102.66 342.33 118.47 342.33 126.38 328.63 118.47 314.94"/></g><g id="NT"><polygon class="cls-10" points="260.61 260.17 244.8 260.17 236.89 273.86 244.8 287.55 260.61 287.55 268.51 273.86 260.61 260.17"/><polygon class="cls-10" points="260.61 232.78 244.8 232.78 236.89 246.47 244.8 260.17 260.61 260.17 268.51 246.47 260.61 232.78"/><polygon class="cls-10" points="260.61 205.4 244.8 205.4 236.89 219.09 244.8 232.78 260.61 232.78 268.51 219.09 260.61 205.4"/><polygon class="cls-10" points="236.92 246.47 221.11 246.47 213.2 260.17 221.11 273.86 236.92 273.86 244.82 260.17 236.92 246.47"/><polygon class="cls-10" points="236.92 219.09 221.11 219.09 213.2 232.78 221.11 246.47 236.92 246.47 244.82 232.78 236.92 219.09"/><polygon class="cls-10" points="236.92 191.7 221.11 191.7 213.2 205.4 221.11 219.09 236.92 219.09 244.82 205.4 236.92 191.7"/><polygon class="cls-10" points="213.23 260.17 197.42 260.17 189.51 273.86 197.42 287.55 213.23 287.55 221.13 273.86 213.23 260.17"/><polygon class="cls-10" points="213.23 232.78 197.42 232.78 189.51 246.47 197.42 260.17 213.23 260.17 221.13 246.47 213.23 232.78"/><polygon class="cls-10" points="213.23 205.4 197.42 205.4 189.51 219.09 197.42 232.78 213.23 232.78 221.13 219.09 213.23 205.4"/><polygon class="cls-10" points="189.54 246.47 173.73 246.47 165.82 260.17 173.73 273.86 189.54 273.86 197.45 260.17 189.54 246.47"/><polygon class="cls-10" points="189.54 219.09 173.73 219.09 165.82 232.78 173.73 246.47 189.54 246.47 197.45 232.78 189.54 219.09"/><polygon class="cls-10" points="189.54 191.7 173.73 191.7 165.82 205.4 173.73 219.09 189.54 219.09 197.45 205.4 189.54 191.7"/><polygon class="cls-10" points="189.54 164.32 173.73 164.32 165.82 178.01 173.73 191.7 189.54 191.7 197.45 178.01 189.54 164.32"/><polygon class="cls-10" points="165.85 232.78 150.04 232.78 142.13 246.47 150.04 260.17 165.85 260.17 173.76 246.47 165.85 232.78"/><polygon class="cls-10" points="165.85 205.4 150.04 205.4 142.13 219.09 150.04 232.78 165.85 232.78 173.76 219.09 165.85 205.4"/><polygon class="cls-10" points="165.85 178.01 150.04 178.01 142.13 191.7 150.04 205.4 165.85 205.4 173.76 191.7 165.85 178.01"/><polygon class="cls-10" points="165.85 150.62 150.04 150.62 142.13 164.32 150.04 178.01 165.85 178.01 173.76 164.32 165.85 150.62"/><polygon class="cls-10" points="165.85 123.24 150.04 123.24 142.13 136.93 150.04 150.62 165.85 150.62 173.76 136.93 165.85 123.24"/><polygon class="cls-10" points="165.85 95.85 150.04 95.85 142.13 109.55 150.04 123.24 165.85 123.24 173.76 109.55 165.85 95.85"/><polygon class="cls-10" points="142.16 246.47 126.35 246.47 118.44 260.17 126.35 273.86 142.16 273.86 150.07 260.17 142.16 246.47"/><polygon class="cls-10" points="142.16 219.09 126.35 219.09 118.44 232.78 126.35 246.47 142.16 246.47 150.07 232.78 142.16 219.09"/><polygon class="cls-10" points="142.16 191.7 126.35 191.7 118.44 205.4 126.35 219.09 142.16 219.09 150.07 205.4 142.16 191.7"/><polygon class="cls-10" points="142.16 164.32 126.35 164.32 118.44 178.01 126.35 191.7 142.16 191.7 150.07 178.01 142.16 164.32"/><polygon class="cls-10" points="142.16 136.93 126.35 136.93 118.44 150.62 126.35 164.32 142.16 164.32 150.07 150.62 142.16 136.93"/><polygon class="cls-10" points="142.16 109.55 126.35 109.55 118.44 123.24 126.35 136.93 142.16 136.93 150.07 123.24 142.16 109.55"/><polygon class="cls-10" points="118.47 205.4 102.66 205.4 94.76 219.09 102.66 232.78 118.47 232.78 126.38 219.09 118.47 205.4"/><polygon class="cls-10" points="118.47 178.01 102.66 178.01 94.76 191.7 102.66 205.4 118.47 205.4 126.38 191.7 118.47 178.01"/><polygon class="cls-10" points="118.47 150.62 102.66 150.62 94.76 164.32 102.66 178.01 118.47 178.01 126.38 164.32 118.47 150.62"/><polygon class="cls-10" points="118.47 123.24 102.66 123.24 94.76 136.93 102.66 150.62 118.47 150.62 126.38 136.93 118.47 123.24"/><polygon class="cls-10" points="118.47 95.85 102.66 95.85 94.76 109.55 102.66 123.24 118.47 123.24 126.38 109.55 118.47 95.85"/></g><g id="BC"><polygon class="cls-11" points="142.16 383.41 126.35 383.41 118.44 397.1 126.35 410.79 142.16 410.79 150.07 397.1 142.16 383.41"/><polygon class="cls-11" points="118.47 397.1 102.66 397.1 94.76 410.79 102.66 424.49 118.47 424.49 126.38 410.79 118.47 397.1"/><polygon class="cls-11" points="118.47 369.71 102.66 369.71 94.76 383.41 102.66 397.1 118.47 397.1 126.38 383.41 118.47 369.71"/><polygon class="cls-11" points="118.47 342.33 102.66 342.33 94.76 356.02 102.66 369.71 118.47 369.71 126.38 356.02 118.47 342.33"/><polygon class="cls-11" points="118.47 287.55 102.66 287.55 94.76 301.25 102.66 314.94 118.47 314.94 126.38 301.25 118.47 287.55"/><polygon class="cls-11" points="118.47 260.17 102.66 260.17 94.76 273.86 102.66 287.55 118.47 287.55 126.38 273.86 118.47 260.17"/><polygon class="cls-11" points="118.47 232.78 102.66 232.78 94.76 246.47 102.66 260.17 118.47 260.17 126.38 246.47 118.47 232.78"/><polygon class="cls-11" points="94.78 383.41 78.97 383.41 71.07 397.1 78.97 410.79 94.78 410.79 102.69 397.1 94.78 383.41"/><polygon class="cls-11" points="94.78 356.02 78.97 356.02 71.07 369.71 78.97 383.41 94.78 383.41 102.69 369.71 94.78 356.02"/><polygon class="cls-11" points="94.78 328.63 78.97 328.63 71.07 342.33 78.97 356.02 94.78 356.02 102.69 342.33 94.78 328.63"/><polygon class="cls-11" points="94.78 301.25 78.97 301.25 71.07 314.94 78.97 328.63 94.78 328.63 102.69 314.94 94.78 301.25"/><polygon class="cls-11" points="94.78 273.86 78.97 273.86 71.07 287.55 78.97 301.25 94.78 301.25 102.69 287.55 94.78 273.86"/><polygon class="cls-11" points="94.78 246.47 78.97 246.47 71.07 260.17 78.97 273.86 94.78 273.86 102.69 260.17 94.78 246.47"/><polygon class="cls-11" points="71.09 369.71 55.28 369.71 47.38 383.41 55.28 397.1 71.09 397.1 79 383.41 71.09 369.71"/><polygon class="cls-11" points="71.09 342.33 55.28 342.33 47.38 356.02 55.28 369.71 71.09 369.71 79 356.02 71.09 342.33"/><polygon class="cls-11" points="71.09 314.94 55.28 314.94 47.38 328.63 55.28 342.33 71.09 342.33 79 328.63 71.09 314.94"/><polygon class="cls-11" points="71.09 287.55 55.28 287.55 47.38 301.25 55.28 314.94 71.09 314.94 79 301.25 71.09 287.55"/><polygon class="cls-11" points="71.09 260.17 55.28 260.17 47.38 273.86 55.28 287.55 71.09 287.55 79 273.86 71.09 260.17"/><polygon class="cls-11" points="71.09 232.78 55.28 232.78 47.38 246.47 55.28 260.17 71.09 260.17 79 246.47 71.09 232.78"/><polygon class="cls-11" points="47.41 383.41 31.59 383.41 23.69 397.1 31.59 410.79 47.41 410.79 55.31 397.1 47.41 383.41"/><polygon class="cls-11" points="47.41 356.02 31.59 356.02 23.69 369.71 31.59 383.41 47.41 383.41 55.31 369.71 47.41 356.02"/><polygon class="cls-11" points="47.41 328.63 31.59 328.63 23.69 342.33 31.59 356.02 47.41 356.02 55.31 342.33 47.41 328.63"/><polygon class="cls-11" points="47.41 301.25 31.59 301.25 23.69 314.94 31.59 328.63 47.41 328.63 55.31 314.94 47.41 301.25"/><polygon class="cls-11" points="47.41 273.86 31.59 273.86 23.69 287.55 31.59 301.25 47.41 301.25 55.31 287.55 47.41 273.86"/><polygon class="cls-11" points="47.41 246.47 31.59 246.47 23.69 260.17 31.59 273.86 47.41 273.86 55.31 260.17 47.41 246.47"/><polygon class="cls-11" points="47.41 219.09 31.59 219.09 23.69 232.78 31.59 246.47 47.41 246.47 55.31 232.78 47.41 219.09"/><polygon class="cls-11" points="23.72 369.71 7.91 369.71 0 383.41 7.91 397.1 23.72 397.1 31.62 383.41 23.72 369.71"/><polygon class="cls-11" points="23.72 342.33 7.91 342.33 0 356.02 7.91 369.71 23.72 369.71 31.62 356.02 23.72 342.33"/><polygon class="cls-11" points="23.72 314.94 7.91 314.94 0 328.63 7.91 342.33 23.72 342.33 31.62 328.63 23.72 314.94"/><polygon class="cls-11" points="23.72 205.4 7.91 205.4 0 219.09 7.91 232.78 23.72 232.78 31.62 219.09 23.72 205.4"/></g><g id="YT"><polygon class="cls-12" points="94.78 219.09 78.97 219.09 71.07 232.78 78.97 246.47 94.78 246.47 102.69 232.78 94.78 219.09"/><polygon class="cls-12" points="94.78 191.7 78.97 191.7 71.07 205.4 78.97 219.09 94.78 219.09 102.69 205.4 94.78 191.7"/><polygon class="cls-12" points="94.78 164.32 78.97 164.32 71.07 178.01 78.97 191.7 94.78 191.7 102.69 178.01 94.78 164.32"/><polygon class="cls-12" points="94.78 136.93 78.97 136.93 71.07 150.62 78.97 164.32 94.78 164.32 102.69 150.62 94.78 136.93"/><polygon class="cls-12" points="94.78 109.55 78.97 109.55 71.07 123.24 78.97 136.93 94.78 136.93 102.69 123.24 94.78 109.55"/><polygon class="cls-12" points="94.78 82.16 78.97 82.16 71.07 95.85 78.97 109.55 94.78 109.55 102.69 95.85 94.78 82.16"/><polygon class="cls-12" points="71.09 205.4 55.28 205.4 47.38 219.09 55.28 232.78 71.09 232.78 79 219.09 71.09 205.4"/><polygon class="cls-12" points="71.09 178.01 55.28 178.01 47.38 191.7 55.28 205.4 71.09 205.4 79 191.7 71.09 178.01"/><polygon class="cls-12" points="71.09 150.62 55.28 150.62 47.38 164.32 55.28 178.01 71.09 178.01 79 164.32 71.09 150.62"/><polygon class="cls-12" points="71.09 123.24 55.28 123.24 47.38 136.93 55.28 150.62 71.09 150.62 79 136.93 71.09 123.24"/><polygon class="cls-12" points="71.09 95.85 55.28 95.85 47.38 109.55 55.28 123.24 71.09 123.24 79 109.55 71.09 95.85"/><polygon class="cls-12" points="47.41 191.7 31.59 191.7 23.69 205.4 31.59 219.09 47.41 219.09 55.31 205.4 47.41 191.7"/><polygon class="cls-12" points="47.41 164.32 31.59 164.32 23.69 178.01 31.59 191.7 47.41 191.7 55.31 178.01 47.41 164.32"/><polygon class="cls-12" points="47.41 136.93 31.59 136.93 23.69 150.62 31.59 164.32 47.41 164.32 55.31 150.62 47.41 136.93"/><polygon class="cls-12" points="47.41 109.55 31.59 109.55 23.69 123.24 31.59 136.93 47.41 136.93 55.31 123.24 47.41 109.55"/><polygon class="cls-12" points="23.72 178.01 7.91 178.01 0 191.7 7.91 205.4 23.72 205.4 31.62 191.7 23.72 178.01"/><polygon class="cls-12" points="23.72 150.62 7.91 150.62 0 164.32 7.91 178.01 23.72 178.01 31.62 164.32 23.72 150.62"/></g></svg>